<svg width="310" height="79" viewBox="0 0 310 79" fill="none" xmlns="http://www.w3.org/2000/svg">
<path d="M1 33.1625L2.89891 41.2852L4.60749 34.994L7.40881 37.4946L10.0198 35.6534L13.7991 39.6606L17.1407 52.8736L19.5143 48.7581L22.1253 49.8412L24.9737 48.5415L26.6352 60.9964L28.0594 51.6823L29.4836 52.8736L30.4331 51.0325L31.8572 39.0108L33.2814 40.2022L33.9935 42.9097L35.655 41.8267L38.266 44.8592L40.6397 43.6679L42.5386 44.8592L44.4375 49.8412L46.8111 41.6101L49.1848 40.6354L49.8968 45.7256L54.4664 41.2587L55.9997 42.9097L60.3408 24.3899L65.0881 28.6137L69.1233 29.8051L72.9433 41.6806L76.7189 40.0939L79.5673 37.4946L82.1783 38.361L86.2134 36.9531L89.0618 37.7112L93.097 36.9531L95.9453 30.3466L99.0311 33.3791L101.409 31.1047L103.54 32.0794L106.736 36.4116L108.6 34.2455L110.731 37.4946L112.862 40.2022L113.463 50.4707L115.525 45.7256L116.59 47.3502L117.922 51.7906L120.319 57.2058L124.048 54.2816L128.484 65.6269L130.44 63.4874L132.304 60.9964L133.902 62.296L139.229 68.361L145.088 71.935L147.098 78L149.107 76.2243L151.116 69.7975L153.125 71.9765L155.134 66.1923L158.139 67.0614L159.153 62.7573L161.162 65.899L163.199 68.361L165.18 57.0371L167.176 60.2552L169.198 57.7554L171.189 57.7473L173.32 60.2383L175.185 62.296L177.315 54.8231L179.244 48.0684L181.31 49.083L183.175 47.0253L185.305 47.8917L187.281 39.6606L189.3 41.2852L191.299 36.2225L193.295 37.4946L195.318 32.5126L197.327 34.1782L199.421 43.6679L201.345 37.4611L203.354 38.4222L205.281 35.0036L207.373 39.6606L209.276 38.9025L211.391 39.6606L213.271 41.7184L215.409 37.0594L217.532 38.6859L219.428 33.2916L221.527 33.2708L223.446 29.9867L225.522 32.0794L227.464 27.7559L229.517 21.7906L231.483 23.9799L233.512 27.7473L235.501 21.0102L237.626 23.3784L239.638 21.7906L241.503 21.6823L243.538 18.7197L245.498 18L247.556 21.6535L249.493 21.0325L251.574 24.517L253.583 26.0144L255.618 29.5884L257.602 24.0846L259.613 24.9314L261.62 21.7758L263.609 23.4152L265.638 19.9495L267.604 18.7581L269.734 26.0144L271.653 25.5698L273.729 11.1047L275.684 15.397L277.724 14.2455L279.703 18.6668L281.719 17.6931L283.721 16.6419L285.73 17.9097L287.845 8.16245L289.748 16.0948L291.84 18.6679L293.767 14.6606L295.835 16.0686L297.785 14.6606L299.83 7.22382L301.803 -2.33247L303.825 3.32491L305.822 1.99857L307.82 0.725632L309.951 -0.0324936L311.849 6.73854L313.858 7.87365L315.811 11.0144L317.877 5.26903L319.806 1.80866L321.895 2.87373L323.801 -8.80505L325.913 0.725632H327.796L329.927 -0.140793L331.941 3.09566L333.922 5.49097L335.959 3.54152H337.968L339.972 4.84182L341.912 0.725632L343.996 -1.89179L345.907 -1.33213L348.014 -4.26987L349.902 -2.30686L352.033 -5.33935" stroke="url(#paint0_linear)" stroke-linecap="round" stroke-linejoin="round"/>
<defs>
<linearGradient id="paint0_linear" x1="229.445" y1="44.4393" x2="149.845" y2="44.4393" gradientUnits="userSpaceOnUse">
<stop stop-color="#EF9E36"/>
<stop offset="1" stop-color="#F8CD66" stop-opacity="0.01"/>
</linearGradient>
</defs>
</svg>
