<svg width="141" height="58" viewBox="0 0 141 58" fill="none" xmlns="http://www.w3.org/2000/svg">
<path d="M1 42.8484L2.89891 35.2671L4.60749 41.1389L7.40881 38.8051L10.0198 40.5235L13.7991 36.7834L17.1407 24.4513L19.5143 28.2924L22.1253 27.2816L24.9737 28.4946L26.6352 16.87L28.0594 25.5632L29.4836 24.4513L30.4331 26.1697L31.8572 37.3899L33.2814 36.278L33.9935 33.7509L35.655 34.7617L38.266 31.9314L40.6397 33.0433L42.5386 31.9314L44.4375 27.2816L46.8111 34.9639L49.1848 35.8736L49.8968 31.1227L54.4664 35.2919L55.9997 33.7509L60.3408 51.0361L65.0881 47.0939L69.1233 45.9819L72.9433 34.8981L76.7189 36.3791L79.5673 38.8051L82.1783 37.9964L86.2134 39.3105L89.0618 38.6029L93.097 39.3105L95.9453 45.4765L99.0311 42.6462L101.409 44.769L103.54 43.8592L106.736 39.8159L108.6 41.8375L110.731 38.8051L112.862 36.278L113.463 26.694L115.525 31.1227L116.59 29.6065L117.922 25.4621L120.319 20.4079L124.048 23.1372L128.484 12.5482L130.44 14.5451L132.304 16.87L133.902 15.657L139.229 9.99639L145.088 6.66065L147.098 1L149.107 2.65737L151.116 8.65562L153.125 6.62193L155.134 12.0205L158.139 11.2094L159.153 15.2265L161.162 12.2943L163.199 9.99639L165.18 20.5653L167.176 17.5618L169.198 19.8949L171.189 19.9025L173.32 17.5776L175.185 15.657L177.315 22.6318L179.244 28.9362L181.31 27.9892L183.175 29.9097L185.305 29.1011L187.281 36.7834L189.3 35.2671L191.299 39.9923L193.295 38.8051L195.318 43.4549L197.327 41.9003L199.421 33.0433L201.345 38.8363L203.354 37.9393L205.281 41.13L207.373 36.7834L209.276 37.491L211.391 36.7834L213.271 34.8628L215.409 39.2112L217.532 37.6931L219.428 42.7278L221.527 42.7473L223.446 45.8124L225.522 43.8592L227.464 47.8945L229.517 53.4621L231.483 51.4187L233.512 47.9025L235.501 54.1905L237.626 51.9801L239.638 53.4621L241.503 53.5632L243.538 56.3283L245.498 57L247.556 53.5901L249.493 54.1697L251.574 50.9175L253.583 49.5199L255.618 46.1841L257.602 51.321L259.613 50.5307L261.62 53.4759L263.609 51.9458L265.638 55.1805L267.604 56.2924L269.734 49.5199L271.653 49.9349L273.729 44.769L275.684 40.7628L277.724 41.8375L279.703 37.711L281.719 33.9531L283.721 34.9342L285.73 33.7509L287.845 42.8484L289.748 35.4448L291.84 33.0433L293.767 36.7834L295.835 35.4693L297.785 36.7834L299.83 25.0578L301.803 33.977L303.825 28.6968L305.822 29.9347L307.82 31.1227L309.951 31.8303L311.849 25.5107L313.858 24.4513L315.811 21.5199L317.877 26.8822L319.806 30.1119L321.895 29.1178L323.801 40.0181L325.913 31.1227H327.796L329.927 31.9314L331.941 28.9107L333.922 26.6751L335.959 28.4946H337.968L339.972 27.281L341.912 31.1227L343.996 33.5657L345.907 33.0433L348.014 35.7852L349.902 33.9531L352.033 36.7834" stroke="url(#paint0_linear)" stroke-linecap="round" stroke-linejoin="round"/>
<defs>
<linearGradient id="paint0_linear" x1="80.2779" y1="22.6764" x2="1" y2="22.6764" gradientUnits="userSpaceOnUse">
<stop stop-color="#EF9E36"/>
<stop offset="1" stop-color="#F8CD66" stop-opacity="0.01"/>
</linearGradient>
</defs>
</svg>
