<svg width="1040" height="255" viewBox="0 0 1040 255" fill="none" xmlns="http://www.w3.org/2000/svg">
<mask id="mask0" mask-type="alpha" maskUnits="userSpaceOnUse" x="-200" y="0" width="1440" height="310">
<rect x="-200" width="1440" height="310" fill="white"/>
</mask>
<g mask="url(#mask0)">
<path opacity="0.1" fill-rule="evenodd" clip-rule="evenodd" d="M1259.18 -15.0754C1199.02 41.9216 1136.38 100.803 1041.19 139.751C995.97 158.257 944.975 170.96 890.358 175.574C831.232 180.568 771.055 176.996 712.741 170.306C591.284 156.373 473.018 127.576 347.407 130.466C240.69 132.921 140.094 156.793 43.7229 182.063C-52.1567 207.209 -147.63 234.999 -250.778 248.273C-263.672 249.932 -276.633 251.339 -289.679 252.508C-291 252.628 -291.577 251.423 -290.238 251.303C-185.175 241.879 -87.7538 215.602 8.34619 190.059C102.108 165.137 197.937 139.681 300.799 131.606C356.324 127.247 411.979 128.997 467.04 134.713C528.343 141.078 588.097 151.544 648.402 160.466C707.939 169.274 768.828 176.495 830.438 176.663C890.153 176.826 948.465 169.408 1001.27 152.736C1103.95 120.322 1173.31 62.9445 1234.12 6.18755C1241.92 -1.09045 1249.63 -8.39745 1257.35 -15.7064C1258.07 -16.3874 1259.9 -15.7604 1259.18 -15.0754Z" fill="#FFFFFE"/>
<path opacity="0.05" fill-rule="evenodd" clip-rule="evenodd" d="M-223.129 92.0485C-124.693 142.564 2.55971 164.875 128.522 171.898C281.717 180.439 435.021 166.647 588.037 163.206C726.518 160.092 870.722 165.799 997.986 202.371C1061.05 220.493 1114.27 246.835 1164.67 275.937C1213.43 304.102 1260.56 333.852 1316.76 356.582C1423.18 399.616 1556.32 416.85 1682.15 404.582C1697.85 403.051 1713.41 401.03 1728.8 398.604C1730.08 398.403 1729.54 397.197 1728.26 397.398C1600.48 417.539 1461.03 406.039 1346.24 366.175C1228.62 325.326 1151.64 252.934 1033.78 212.258C919.303 172.75 784.789 161.405 655.159 161.192C500.037 160.938 345.79 175.932 190.575 172.947C61.3649 170.461 -72.7069 154.498 -181.597 109.668C-195.497 103.944 -208.847 97.7535 -221.686 91.1645C-222.687 90.6515 -224.138 91.5315 -223.129 92.0485Z" fill="#FFFFFE"/>
</g>
</svg>
