<svg width="745" height="145" viewBox="0 0 745 145" fill="none" xmlns="http://www.w3.org/2000/svg">
<g filter="url(#filter0_d)">
<path d="M8.551 83V1.85599H25.939L60.463 50.366V1.85599H80.875V83H63.361L28.837 34.616V83H8.551ZM97.6994 83V1.85599H156.667V17.48H117.985V34.49H152.005V50.366H117.985V83H97.6994ZM187.288 83V17.48H163.474V1.85599H231.388V17.48H207.574V83H187.288ZM244.496 83V1.85599H264.782V67.376H303.086V83H244.496ZM312.422 83L343.418 1.85599H365.342L396.338 83H375.17L367.862 64.604H340.772L333.59 83H312.422ZM343.544 49.61H365.09L354.254 21.386L343.544 49.61ZM441.617 84.26C434.057 84.26 427.463 83.042 421.835 80.606C416.291 78.17 411.965 74.558 408.857 69.77C405.833 64.982 404.321 59.102 404.321 52.13V1.85599H424.607V50.24C424.607 55.868 426.077 60.068 429.017 62.84C431.957 65.612 436.157 66.998 441.617 66.998C447.077 66.998 451.277 65.612 454.217 62.84C457.157 60.068 458.627 55.868 458.627 50.24V1.85599H478.913V52.13C478.913 59.102 477.359 64.982 474.251 69.77C471.227 74.558 466.901 78.17 461.273 80.606C455.729 83.042 449.177 84.26 441.617 84.26ZM495.084 83V1.85599H512.472L546.996 50.366V1.85599H567.408V83H549.894L515.37 34.616V83H495.084ZM625.309 84.26C611.113 84.26 600.277 80.648 592.801 73.424C585.409 66.116 581.713 55.994 581.713 43.058C581.713 29.534 585.325 19.076 592.549 11.684C599.857 4.29199 610.735 0.595994 625.183 0.595994C630.139 0.595994 634.549 0.973995 638.413 1.72999C642.361 2.486 646.141 3.49399 649.753 4.75399V22.52C642.445 19.496 634.759 17.984 626.695 17.984C618.295 17.984 612.121 20 608.173 24.032C604.309 28.064 602.377 34.406 602.377 43.058C602.377 51.29 604.435 57.338 608.551 61.202C612.667 65.066 618.799 66.998 626.947 66.998C630.895 66.998 634.801 66.662 638.665 65.99C642.529 65.234 646.267 64.1 649.879 62.588V80.48C646.351 81.656 642.613 82.58 638.665 83.252C634.717 83.924 630.265 84.26 625.309 84.26ZM664.153 83V1.85599H684.439V33.986H716.191V1.85599H736.477V83H716.191V50.87H684.439V83H664.153Z" fill="url(#paint0_linear)"/>
</g>
<defs>
<filter id="filter0_d" x="-16.449" y="0.596008" width="777.926" height="143.664" filterUnits="userSpaceOnUse" color-interpolation-filters="sRGB">
<feFlood flood-opacity="0" result="BackgroundImageFix"/>
<feColorMatrix in="SourceAlpha" type="matrix" values="0 0 0 0 0 0 0 0 0 0 0 0 0 0 0 0 0 0 127 0" result="hardAlpha"/>
<feOffset dy="35"/>
<feGaussianBlur stdDeviation="12.5"/>
<feColorMatrix type="matrix" values="0 0 0 0 0.0774927 0 0 0 0 0.00751378 0 0 0 0 0.175562 0 0 0 0.814822 0"/>
<feBlend mode="normal" in2="BackgroundImageFix" result="effect1_dropShadow"/>
<feBlend mode="normal" in="SourceGraphic" in2="effect1_dropShadow" result="shape"/>
</filter>
<linearGradient id="paint0_linear" x1="732.575" y1="-23.1136" x2="2" y2="-23.1136" gradientUnits="userSpaceOnUse">
<stop stop-color="#EE4933"/>
<stop offset="0.289204" stop-color="#F6EE4E"/>
<stop offset="0.518834" stop-color="#37BD54"/>
<stop offset="0.749741" stop-color="#2A88D1"/>
<stop offset="1" stop-color="#9821E6"/>
</linearGradient>
</defs>
</svg>
