<svg width="486" height="100" viewBox="0 0 486 100" fill="none" xmlns="http://www.w3.org/2000/svg">
<path d="M45.3599 92V55.936H53.0879L68.4319 77.496V55.936H77.5039V92H69.7199L54.3759 70.496V92H45.3599ZM84.2037 92V55.936H110.412V62.88H93.2197V70.44H108.34V77.496H93.2197V92H84.2037ZM123.243 92V62.88H112.659V55.936H142.843V62.88H132.259V92H123.243ZM160.922 92V55.936H169.938V85.056H186.962V92H160.922ZM190.334 92L204.11 55.936H213.854L227.63 92H218.222L214.974 83.824H202.934L199.742 92H190.334ZM204.166 77.16H213.742L208.926 64.616L204.166 77.16ZM246.976 92.56C243.616 92.56 240.686 92.0187 238.184 90.936C235.72 89.8533 233.798 88.248 232.416 86.12C231.072 83.992 230.4 81.3787 230.4 78.28V55.936H239.416V77.44C239.416 79.9413 240.07 81.808 241.376 83.04C242.683 84.272 244.55 84.888 246.976 84.888C249.403 84.888 251.27 84.272 252.576 83.04C253.883 81.808 254.536 79.9413 254.536 77.44V55.936H263.552V78.28C263.552 81.3787 262.862 83.992 261.48 86.12C260.136 88.248 258.214 89.8533 255.712 90.936C253.248 92.0187 250.336 92.56 246.976 92.56ZM269.961 92V55.936H277.689L293.033 77.496V55.936H302.105V92H294.321L278.977 70.496V92H269.961ZM327.061 92.56C320.752 92.56 315.936 90.9547 312.613 87.744C309.328 84.496 307.685 79.9973 307.685 74.248C307.685 68.2373 309.291 63.5893 312.501 60.304C315.749 57.0187 320.584 55.376 327.005 55.376C329.208 55.376 331.168 55.544 332.885 55.88C334.64 56.216 336.32 56.664 337.925 57.224V65.12C334.677 63.776 331.261 63.104 327.677 63.104C323.944 63.104 321.2 64 319.445 65.792C317.728 67.584 316.869 70.4027 316.869 74.248C316.869 77.9067 317.784 80.5947 319.613 82.312C321.443 84.0293 324.168 84.888 327.789 84.888C329.544 84.888 331.28 84.7387 332.997 84.44C334.715 84.104 336.376 83.6 337.981 82.928V90.88C336.413 91.4027 334.752 91.8133 332.997 92.112C331.243 92.4107 329.264 92.56 327.061 92.56ZM343.547 92V55.936H352.563V70.216H366.675V55.936H375.691V92H366.675V77.72H352.563V92H343.547ZM382.391 92V55.936H408.991V62.88H391.407V70.44H406.919V77.496H391.407V85.056H408.991V92H382.391ZM425.77 92.56C423.38 92.56 421.14 92.3733 419.05 92C416.996 91.664 415.223 91.16 413.73 90.488V82.816C415.372 83.5253 417.183 84.104 419.162 84.552C421.178 85 423.082 85.224 424.874 85.224C427.114 85.224 428.775 85.0187 429.858 84.608C430.978 84.1973 431.538 83.3013 431.538 81.92C431.538 80.9867 431.258 80.24 430.698 79.68C430.175 79.12 429.298 78.6347 428.066 78.224C426.871 77.776 425.228 77.2533 423.138 76.656C420.674 75.9093 418.714 75.088 417.258 74.192C415.802 73.2587 414.756 72.1387 414.122 70.832C413.487 69.5253 413.17 67.92 413.17 66.016C413.17 62.5813 414.402 59.9493 416.866 58.12C419.33 56.2907 422.97 55.376 427.786 55.376C429.876 55.376 431.911 55.544 433.89 55.88C435.868 56.1787 437.474 56.5333 438.706 56.944V64.672C437.1 64.0373 435.476 63.5707 433.834 63.272C432.228 62.9733 430.66 62.824 429.13 62.824C427.114 62.824 425.471 63.0107 424.202 63.384C422.97 63.7573 422.354 64.616 422.354 65.96C422.354 66.744 422.578 67.3787 423.026 67.864C423.474 68.312 424.239 68.7227 425.322 69.096C426.442 69.4693 427.954 69.9173 429.858 70.44C432.807 71.224 435.066 72.176 436.634 73.296C438.202 74.3787 439.284 75.648 439.882 77.104C440.479 78.5227 440.778 80.128 440.778 81.92C440.778 85.0933 439.546 87.6693 437.082 89.648C434.618 91.5893 430.847 92.56 425.77 92.56Z" fill="#BA9EFC" fill-opacity="0.01"/>
<path d="M45.3599 92H44.8599V92.5H45.3599V92ZM45.3599 55.936V55.436H44.8599V55.936H45.3599ZM53.0879 55.936L53.4953 55.6461L53.3458 55.436H53.0879V55.936ZM68.4319 77.496L68.0245 77.7859L68.9319 79.0609V77.496H68.4319ZM68.4319 55.936V55.436H67.9319V55.936H68.4319ZM77.5039 55.936H78.0039V55.436H77.5039V55.936ZM77.5039 92V92.5H78.0039V92H77.5039ZM69.7199 92L69.3129 92.2904L69.4624 92.5H69.7199V92ZM54.3759 70.496L54.7829 70.2056L53.8759 68.9344V70.496H54.3759ZM54.3759 92V92.5H54.8759V92H54.3759ZM45.8599 92V55.936H44.8599V92H45.8599ZM45.3599 56.436H53.0879V55.436H45.3599V56.436ZM52.6805 56.2259L68.0245 77.7859L68.8393 77.2061L53.4953 55.6461L52.6805 56.2259ZM68.9319 77.496V55.936H67.9319V77.496H68.9319ZM68.4319 56.436H77.5039V55.436H68.4319V56.436ZM77.0039 55.936V92H78.0039V55.936H77.0039ZM77.5039 91.5H69.7199V92.5H77.5039V91.5ZM70.1269 91.7096L54.7829 70.2056L53.9689 70.7864L69.3129 92.2904L70.1269 91.7096ZM53.8759 70.496V92H54.8759V70.496H53.8759ZM54.3759 91.5H45.3599V92.5H54.3759V91.5ZM84.2037 92H83.7037V92.5H84.2037V92ZM84.2037 55.936V55.436H83.7037V55.936H84.2037ZM110.412 55.936H110.912V55.436H110.412V55.936ZM110.412 62.88V63.38H110.912V62.88H110.412ZM93.2197 62.88V62.38H92.7197V62.88H93.2197ZM93.2197 70.44H92.7197V70.94H93.2197V70.44ZM108.34 70.44H108.84V69.94H108.34V70.44ZM108.34 77.496V77.996H108.84V77.496H108.34ZM93.2197 77.496V76.996H92.7197V77.496H93.2197ZM93.2197 92V92.5H93.7197V92H93.2197ZM84.7037 92V55.936H83.7037V92H84.7037ZM84.2037 56.436H110.412V55.436H84.2037V56.436ZM109.912 55.936V62.88H110.912V55.936H109.912ZM110.412 62.38H93.2197V63.38H110.412V62.38ZM92.7197 62.88V70.44H93.7197V62.88H92.7197ZM93.2197 70.94H108.34V69.94H93.2197V70.94ZM107.84 70.44V77.496H108.84V70.44H107.84ZM108.34 76.996H93.2197V77.996H108.34V76.996ZM92.7197 77.496V92H93.7197V77.496H92.7197ZM93.2197 91.5H84.2037V92.5H93.2197V91.5ZM123.243 92H122.743V92.5H123.243V92ZM123.243 62.88H123.743V62.38H123.243V62.88ZM112.659 62.88H112.159V63.38H112.659V62.88ZM112.659 55.936V55.436H112.159V55.936H112.659ZM142.843 55.936H143.343V55.436H142.843V55.936ZM142.843 62.88V63.38H143.343V62.88H142.843ZM132.259 62.88V62.38H131.759V62.88H132.259ZM132.259 92V92.5H132.759V92H132.259ZM123.743 92V62.88H122.743V92H123.743ZM123.243 62.38H112.659V63.38H123.243V62.38ZM113.159 62.88V55.936H112.159V62.88H113.159ZM112.659 56.436H142.843V55.436H112.659V56.436ZM142.343 55.936V62.88H143.343V55.936H142.343ZM142.843 62.38H132.259V63.38H142.843V62.38ZM131.759 62.88V92H132.759V62.88H131.759ZM132.259 91.5H123.243V92.5H132.259V91.5ZM160.922 92H160.422V92.5H160.922V92ZM160.922 55.936V55.436H160.422V55.936H160.922ZM169.938 55.936H170.438V55.436H169.938V55.936ZM169.938 85.056H169.438V85.556H169.938V85.056ZM186.962 85.056H187.462V84.556H186.962V85.056ZM186.962 92V92.5H187.462V92H186.962ZM161.422 92V55.936H160.422V92H161.422ZM160.922 56.436H169.938V55.436H160.922V56.436ZM169.438 55.936V85.056H170.438V55.936H169.438ZM169.938 85.556H186.962V84.556H169.938V85.556ZM186.462 85.056V92H187.462V85.056H186.462ZM186.962 91.5H160.922V92.5H186.962V91.5ZM190.334 92L189.867 91.8216L189.607 92.5H190.334V92ZM204.11 55.936V55.436H203.765L203.643 55.7576L204.11 55.936ZM213.854 55.936L214.321 55.7576L214.198 55.436H213.854V55.936ZM227.63 92V92.5H228.356L228.097 91.8216L227.63 92ZM218.222 92L217.757 92.1846L217.882 92.5H218.222V92ZM214.974 83.824L215.438 83.6394L215.313 83.324H214.974V83.824ZM202.934 83.824V83.324H202.592L202.468 83.6422L202.934 83.824ZM199.742 92V92.5H200.083L200.207 92.1818L199.742 92ZM204.166 77.16L203.698 76.9826L203.441 77.66H204.166V77.16ZM213.742 77.16V77.66H214.469L214.208 76.9808L213.742 77.16ZM208.926 64.616L209.392 64.4368L208.923 63.2139L208.458 64.4386L208.926 64.616ZM190.801 92.1784L204.577 56.1144L203.643 55.7576L189.867 91.8216L190.801 92.1784ZM204.11 56.436H213.854V55.436H204.11V56.436ZM213.387 56.1144L227.163 92.1784L228.097 91.8216L214.321 55.7576L213.387 56.1144ZM227.63 91.5H218.222V92.5H227.63V91.5ZM218.686 91.8154L215.438 83.6394L214.509 84.0086L217.757 92.1846L218.686 91.8154ZM214.974 83.324H202.934V84.324H214.974V83.324ZM202.468 83.6422L199.276 91.8182L200.207 92.1818L203.399 84.0058L202.468 83.6422ZM199.742 91.5H190.334V92.5H199.742V91.5ZM204.166 77.66H213.742V76.66H204.166V77.66ZM214.208 76.9808L209.392 64.4368L208.459 64.7952L213.275 77.3392L214.208 76.9808ZM208.458 64.4386L203.698 76.9826L204.633 77.3374L209.393 64.7934L208.458 64.4386ZM238.184 90.936L237.983 91.3938L237.986 91.3949L238.184 90.936ZM232.416 86.12L231.993 86.387L231.997 86.3922L232.416 86.12ZM230.4 55.936V55.436H229.9V55.936H230.4ZM239.416 55.936H239.916V55.436H239.416V55.936ZM241.376 83.04L241.719 82.6762L241.719 82.6762L241.376 83.04ZM252.576 83.04L252.919 83.4038L252.919 83.4038L252.576 83.04ZM254.536 55.936V55.436H254.036V55.936H254.536ZM263.552 55.936H264.052V55.436H263.552V55.936ZM261.48 86.12L261.061 85.8477L261.057 85.853L261.48 86.12ZM255.712 90.936L255.514 90.4771L255.511 90.4782L255.712 90.936ZM246.976 92.06C243.669 92.06 240.809 91.5271 238.383 90.4771L237.986 91.3949C240.562 92.5102 243.563 93.06 246.976 93.06V92.06ZM238.385 90.4782C236.005 89.4323 234.161 87.8889 232.836 85.8478L231.997 86.3922C233.435 88.6071 235.435 90.2744 237.983 91.3938L238.385 90.4782ZM232.839 85.853C231.556 83.8216 230.9 81.306 230.9 78.28H229.9C229.9 81.4513 230.588 84.1624 231.993 86.387L232.839 85.853ZM230.9 78.28V55.936H229.9V78.28H230.9ZM230.4 56.436H239.416V55.436H230.4V56.436ZM238.916 55.936V77.44H239.916V55.936H238.916ZM238.916 77.44C238.916 80.0235 239.592 82.045 241.033 83.4038L241.719 82.6762C240.547 81.571 239.916 79.8591 239.916 77.44H238.916ZM241.033 83.4038C242.461 84.7502 244.468 85.388 246.976 85.388V84.388C244.631 84.388 242.905 83.7938 241.719 82.6762L241.033 83.4038ZM246.976 85.388C249.485 85.388 251.491 84.7502 252.919 83.4038L252.233 82.6762C251.048 83.7938 249.321 84.388 246.976 84.388V85.388ZM252.919 83.4038C254.36 82.045 255.036 80.0235 255.036 77.44H254.036C254.036 79.8591 253.405 81.571 252.233 82.6762L252.919 83.4038ZM255.036 77.44V55.936H254.036V77.44H255.036ZM254.536 56.436H263.552V55.436H254.536V56.436ZM263.052 55.936V78.28H264.052V55.936H263.052ZM263.052 78.28C263.052 81.3036 262.379 83.8172 261.061 85.8478L261.9 86.3922C263.344 84.1668 264.052 81.4538 264.052 78.28H263.052ZM261.057 85.853C259.772 87.8889 257.931 89.431 255.514 90.4771L255.911 91.3949C258.496 90.2757 260.501 88.6071 261.903 86.387L261.057 85.853ZM255.511 90.4782C253.124 91.527 250.284 92.06 246.976 92.06V93.06C250.389 93.06 253.372 92.5103 255.913 91.3938L255.511 90.4782ZM269.961 92H269.461V92.5H269.961V92ZM269.961 55.936V55.436H269.461V55.936H269.961ZM277.689 55.936L278.097 55.6461L277.947 55.436H277.689V55.936ZM293.033 77.496L292.626 77.7859L293.533 79.0609V77.496H293.033ZM293.033 55.936V55.436H292.533V55.936H293.033ZM302.105 55.936H302.605V55.436H302.105V55.936ZM302.105 92V92.5H302.605V92H302.105ZM294.321 92L293.914 92.2904L294.064 92.5H294.321V92ZM278.977 70.496L279.384 70.2056L278.477 68.9344V70.496H278.977ZM278.977 92V92.5H279.477V92H278.977ZM270.461 92V55.936H269.461V92H270.461ZM269.961 56.436H277.689V55.436H269.961V56.436ZM277.282 56.2259L292.626 77.7859L293.441 77.2061L278.097 55.6461L277.282 56.2259ZM293.533 77.496V55.936H292.533V77.496H293.533ZM293.033 56.436H302.105V55.436H293.033V56.436ZM301.605 55.936V92H302.605V55.936H301.605ZM302.105 91.5H294.321V92.5H302.105V91.5ZM294.728 91.7096L279.384 70.2056L278.57 70.7864L293.914 92.2904L294.728 91.7096ZM278.477 70.496V92H279.477V70.496H278.477ZM278.977 91.5H269.961V92.5H278.977V91.5ZM312.613 87.744L312.262 88.0996L312.266 88.1036L312.613 87.744ZM312.501 60.304L312.146 59.9525L312.144 59.9545L312.501 60.304ZM332.885 55.88L332.789 56.3707L332.791 56.3711L332.885 55.88ZM337.925 57.224H338.425V56.8689L338.09 56.7519L337.925 57.224ZM337.925 65.12L337.734 65.582L338.425 65.868V65.12H337.925ZM319.445 65.792L319.088 65.4422L319.084 65.446L319.445 65.792ZM319.613 82.312L319.955 81.9475L319.955 81.9475L319.613 82.312ZM332.997 84.44L333.083 84.9327L333.093 84.9307L332.997 84.44ZM337.981 82.928H338.481V82.1767L337.788 82.4668L337.981 82.928ZM337.981 90.88L338.139 91.3543L338.481 91.2404V90.88H337.981ZM332.997 92.112L332.913 91.6191L332.913 91.6191L332.997 92.112ZM327.061 92.06C320.833 92.06 316.16 90.4763 312.961 87.3844L312.266 88.1036C315.711 91.4331 320.671 93.06 327.061 93.06V92.06ZM312.965 87.3884C309.796 84.2562 308.185 79.8983 308.185 74.248H307.185C307.185 80.0963 308.859 84.7358 312.262 88.0996L312.965 87.3884ZM308.185 74.248C308.185 68.3262 309.765 63.8193 312.859 60.6535L312.144 59.9545C308.816 63.3594 307.185 68.1485 307.185 74.248H308.185ZM312.857 60.6555C315.979 57.4973 320.664 55.876 327.005 55.876V54.876C320.503 54.876 315.519 56.5401 312.146 59.9525L312.857 60.6555ZM327.005 55.876C329.184 55.876 331.11 56.0422 332.789 56.3707L332.981 55.3893C331.225 55.0458 329.232 54.876 327.005 54.876V55.876ZM332.791 56.3711C334.523 56.7027 336.179 57.1445 337.761 57.6961L338.09 56.7519C336.46 56.1835 334.757 55.7293 332.979 55.3889L332.791 56.3711ZM337.425 57.224V65.12H338.425V57.224H337.425ZM338.116 64.658C334.807 63.2884 331.326 62.604 327.677 62.604V63.604C331.197 63.604 334.548 64.2636 337.734 65.582L338.116 64.658ZM327.677 62.604C323.875 62.604 320.974 63.5158 319.088 65.4422L319.802 66.1418C321.426 64.4842 324.013 63.604 327.677 63.604V62.604ZM319.084 65.446C317.239 67.3711 316.369 70.3424 316.369 74.248H317.369C317.369 70.463 318.216 67.7969 319.806 66.138L319.084 65.446ZM316.369 74.248C316.369 77.9809 317.302 80.8284 319.271 82.6765L319.955 81.9475C318.265 80.3609 317.369 77.8324 317.369 74.248H316.369ZM319.271 82.6765C321.227 84.5129 324.097 85.388 327.789 85.388V84.388C324.239 84.388 321.658 83.5458 319.955 81.9475L319.271 82.6765ZM327.789 85.388C329.572 85.388 331.337 85.2362 333.083 84.9326L332.912 83.9474C331.223 84.2411 329.515 84.388 327.789 84.388V85.388ZM333.093 84.9307C334.844 84.5882 336.538 84.0744 338.174 83.3892L337.788 82.4668C336.214 83.1256 334.585 83.6198 332.901 83.9493L333.093 84.9307ZM337.481 82.928V90.88H338.481V82.928H337.481ZM337.823 90.4057C336.281 90.9197 334.645 91.3244 332.913 91.6191L333.081 92.6049C334.859 92.3023 336.545 91.8857 338.139 91.3543L337.823 90.4057ZM332.913 91.6191C331.192 91.9121 329.242 92.06 327.061 92.06V93.06C329.286 93.06 331.293 92.9092 333.081 92.6049L332.913 91.6191ZM343.547 92H343.047V92.5H343.547V92ZM343.547 55.936V55.436H343.047V55.936H343.547ZM352.563 55.936H353.063V55.436H352.563V55.936ZM352.563 70.216H352.063V70.716H352.563V70.216ZM366.675 70.216V70.716H367.175V70.216H366.675ZM366.675 55.936V55.436H366.175V55.936H366.675ZM375.691 55.936H376.191V55.436H375.691V55.936ZM375.691 92V92.5H376.191V92H375.691ZM366.675 92H366.175V92.5H366.675V92ZM366.675 77.72H367.175V77.22H366.675V77.72ZM352.563 77.72V77.22H352.063V77.72H352.563ZM352.563 92V92.5H353.063V92H352.563ZM344.047 92V55.936H343.047V92H344.047ZM343.547 56.436H352.563V55.436H343.547V56.436ZM352.063 55.936V70.216H353.063V55.936H352.063ZM352.563 70.716H366.675V69.716H352.563V70.716ZM367.175 70.216V55.936H366.175V70.216H367.175ZM366.675 56.436H375.691V55.436H366.675V56.436ZM375.191 55.936V92H376.191V55.936H375.191ZM375.691 91.5H366.675V92.5H375.691V91.5ZM367.175 92V77.72H366.175V92H367.175ZM366.675 77.22H352.563V78.22H366.675V77.22ZM352.063 77.72V92H353.063V77.72H352.063ZM352.563 91.5H343.547V92.5H352.563V91.5ZM382.391 92H381.891V92.5H382.391V92ZM382.391 55.936V55.436H381.891V55.936H382.391ZM408.991 55.936H409.491V55.436H408.991V55.936ZM408.991 62.88V63.38H409.491V62.88H408.991ZM391.407 62.88V62.38H390.907V62.88H391.407ZM391.407 70.44H390.907V70.94H391.407V70.44ZM406.919 70.44H407.419V69.94H406.919V70.44ZM406.919 77.496V77.996H407.419V77.496H406.919ZM391.407 77.496V76.996H390.907V77.496H391.407ZM391.407 85.056H390.907V85.556H391.407V85.056ZM408.991 85.056H409.491V84.556H408.991V85.056ZM408.991 92V92.5H409.491V92H408.991ZM382.891 92V55.936H381.891V92H382.891ZM382.391 56.436H408.991V55.436H382.391V56.436ZM408.491 55.936V62.88H409.491V55.936H408.491ZM408.991 62.38H391.407V63.38H408.991V62.38ZM390.907 62.88V70.44H391.907V62.88H390.907ZM391.407 70.94H406.919V69.94H391.407V70.94ZM406.419 70.44V77.496H407.419V70.44H406.419ZM406.919 76.996H391.407V77.996H406.919V76.996ZM390.907 77.496V85.056H391.907V77.496H390.907ZM391.407 85.556H408.991V84.556H391.407V85.556ZM408.491 85.056V92H409.491V85.056H408.491ZM408.991 91.5H382.391V92.5H408.991V91.5ZM419.05 92L419.137 91.5077L419.13 91.5066L419.05 92ZM413.73 90.488H413.23V90.8113L413.524 90.944L413.73 90.488ZM413.73 82.816L413.928 82.357L413.23 82.0555V82.816H413.73ZM419.162 84.552L419.051 85.0397L419.053 85.0401L419.162 84.552ZM429.858 84.608L429.685 84.1385L429.68 84.1405L429.858 84.608ZM430.698 79.68L430.332 80.0212L430.338 80.0275L430.344 80.0336L430.698 79.68ZM428.066 78.224L427.89 78.6922L427.899 78.6954L427.907 78.6983L428.066 78.224ZM423.138 76.656L422.993 77.1346L423 77.1368L423.138 76.656ZM417.258 74.192L416.988 74.613L416.996 74.6178L417.258 74.192ZM414.122 70.832L413.672 71.0505L413.672 71.0505L414.122 70.832ZM416.866 58.12L417.164 58.5215L417.164 58.5215L416.866 58.12ZM433.89 55.88L433.806 56.373L433.815 56.3744L433.89 55.88ZM438.706 56.944H439.206V56.5836L438.864 56.4697L438.706 56.944ZM438.706 64.672L438.522 65.137L439.206 65.4073V64.672H438.706ZM433.834 63.272L433.742 63.7636L433.744 63.7639L433.834 63.272ZM424.202 63.384L424.061 62.9043L424.057 62.9055L424.202 63.384ZM423.026 67.864L422.658 68.2031L422.665 68.2105L422.672 68.2176L423.026 67.864ZM425.322 69.096L425.159 69.5687L425.163 69.5703L425.322 69.096ZM429.858 70.44L429.725 70.9222L429.729 70.9232L429.858 70.44ZM436.634 73.296L436.343 73.7029L436.349 73.7074L436.634 73.296ZM439.882 77.104L439.419 77.2938L439.421 77.298L439.882 77.104ZM437.082 89.648L437.391 90.0408L437.395 90.0379L437.082 89.648ZM425.77 92.06C423.406 92.06 421.196 91.8753 419.137 91.5078L418.962 92.4922C421.085 92.8713 423.354 93.06 425.77 93.06V92.06ZM419.13 91.5066C417.109 91.1758 415.379 90.6821 413.935 90.032L413.524 90.944C415.066 91.6379 416.884 92.1522 418.969 92.4934L419.13 91.5066ZM414.23 90.488V82.816H413.23V90.488H414.23ZM413.531 83.275C415.206 83.9981 417.046 84.5857 419.051 85.0397L419.272 84.0643C417.32 83.6223 415.539 83.0526 413.928 82.357L413.531 83.275ZM419.053 85.0401C421.099 85.4948 423.04 85.724 424.874 85.724V84.724C423.123 84.724 421.256 84.5052 419.27 84.0639L419.053 85.0401ZM424.874 85.724C427.128 85.724 428.865 85.5194 430.035 85.0755L429.68 84.1405C428.685 84.5179 427.099 84.724 424.874 84.724V85.724ZM430.03 85.0774C430.68 84.839 431.195 84.4473 431.542 83.893C431.884 83.3446 432.038 82.6761 432.038 81.92H431.038C431.038 82.5452 430.911 83.0154 430.694 83.363C430.48 83.7047 430.155 83.9663 429.685 84.1386L430.03 85.0774ZM432.038 81.92C432.038 80.8795 431.722 79.9968 431.051 79.3264L430.344 80.0336C430.794 80.4832 431.038 81.0938 431.038 81.92H432.038ZM431.063 79.3388C430.457 78.6891 429.487 78.1706 428.224 77.7497L427.907 78.6983C429.109 79.0987 429.893 79.5508 430.332 80.0212L431.063 79.3388ZM428.241 77.7558C427.028 77.301 425.371 76.7741 423.275 76.1752L423 77.1368C425.086 77.7326 426.714 78.251 427.89 78.6922L428.241 77.7558ZM423.283 76.1775C420.841 75.4377 418.926 74.6314 417.52 73.7662L416.996 74.6178C418.502 75.5446 420.506 76.381 422.993 77.1345L423.283 76.1775ZM417.527 73.7711C416.134 72.8778 415.159 71.8229 414.571 70.6135L413.672 71.0505C414.354 72.4545 415.469 73.6395 416.988 74.6129L417.527 73.7711ZM414.571 70.6135C413.978 69.3927 413.67 67.8669 413.67 66.016H412.67C412.67 67.9731 412.995 69.658 413.672 71.0505L414.571 70.6135ZM413.67 66.016C413.67 62.7179 414.843 60.2442 417.164 58.5215L416.568 57.7185C413.96 59.6544 412.67 62.4448 412.67 66.016H413.67ZM417.164 58.5215C419.505 56.7833 423.02 55.876 427.786 55.876V54.876C422.919 54.876 419.154 55.798 416.568 57.7185L417.164 58.5215ZM427.786 55.876C429.849 55.876 431.856 56.0418 433.806 56.3729L433.973 55.3871C431.966 55.0462 429.903 54.876 427.786 54.876V55.876ZM433.815 56.3744C435.779 56.6708 437.353 57.0202 438.547 57.4183L438.864 56.4697C437.594 56.0465 435.958 55.6865 433.964 55.3856L433.815 56.3744ZM438.206 56.944V64.672H439.206V56.944H438.206ZM438.889 64.207C437.255 63.5607 435.599 63.0848 433.923 62.7801L433.744 63.7639C435.353 64.0565 436.946 64.514 438.522 65.137L438.889 64.207ZM433.925 62.7804C432.292 62.4765 430.693 62.324 429.13 62.324V63.324C430.628 63.324 432.165 63.4701 433.742 63.7636L433.925 62.7804ZM429.13 62.324C427.088 62.324 425.393 62.5124 424.061 62.9043L424.343 63.8637C425.549 63.5089 427.139 63.324 429.13 63.324V62.324ZM424.057 62.9055C423.359 63.1169 422.794 63.4797 422.409 64.0165C422.026 64.5514 421.854 65.212 421.854 65.96H422.854C422.854 65.364 422.99 64.9233 423.222 64.5995C423.453 64.2777 423.812 64.0244 424.347 63.8625L424.057 62.9055ZM421.854 65.96C421.854 66.8448 422.109 67.6086 422.658 68.2031L423.393 67.5249C423.046 67.1487 422.854 66.6432 422.854 65.96H421.854ZM422.672 68.2176C423.201 68.7466 424.053 69.1875 425.159 69.5687L425.485 68.6233C424.425 68.2578 423.746 67.8774 423.379 67.5104L422.672 68.2176ZM425.163 69.5703C426.296 69.9478 427.817 70.3985 429.725 70.9222L429.99 69.9578C428.09 69.4362 426.587 68.9909 425.48 68.6217L425.163 69.5703ZM429.729 70.9232C432.65 71.6997 434.844 72.6322 436.343 73.7029L436.924 72.8891C435.287 71.7198 432.964 70.7483 429.986 69.9568L429.729 70.9232ZM436.349 73.7074C437.855 74.7468 438.866 75.9447 439.419 77.2938L440.344 76.9142C439.703 75.3513 438.548 74.0105 436.918 72.8846L436.349 73.7074ZM439.421 77.298C439.988 78.646 440.278 80.1838 440.278 81.92H441.278C441.278 80.0722 440.969 78.3993 440.342 76.91L439.421 77.298ZM440.278 81.92C440.278 84.9425 439.114 87.3748 436.769 89.2581L437.395 90.0379C439.977 87.9638 441.278 85.2442 441.278 81.92H440.278ZM436.772 89.2553C434.436 91.0957 430.799 92.06 425.77 92.06V93.06C430.895 93.06 434.799 92.083 437.391 90.0407L436.772 89.2553Z" fill="#22A6FA"/>
<path d="M3.481 48V11.936H21.513C25.769 11.936 28.905 13.056 30.921 15.296C32.937 17.536 33.945 20.5413 33.945 24.312C33.945 26.7387 33.329 28.8667 32.097 30.696C30.865 32.5253 29.185 33.888 27.057 34.784C27.5797 35.1947 27.9903 35.6613 28.289 36.184C28.625 36.6693 28.9797 37.36 29.353 38.256L33.609 48H24.201L20.169 38.816C19.833 38.032 19.4037 37.472 18.881 37.136C18.3583 36.7627 17.6117 36.576 16.641 36.576H12.497V48H3.481ZM12.497 29.632H19.161C20.9157 29.632 22.2783 29.2027 23.249 28.344C24.257 27.448 24.761 26.104 24.761 24.312C24.761 20.6907 23.025 18.88 19.553 18.88H12.497V29.632ZM39.5357 48V11.936H66.1357V18.88H48.5517V26.44H64.0637V33.496H48.5517V41.056H66.1357V48H39.5357ZM83.2698 48L69.4938 11.936H78.9018L88.0858 37.696L97.3258 11.936H106.79L93.0138 48H83.2698ZM126.97 48.56C121.108 48.56 116.647 47.0667 113.586 44.08C110.524 41.0933 108.994 36.4453 108.994 30.136C108.994 23.4533 110.524 18.656 113.586 15.744C116.647 12.832 121.108 11.376 126.97 11.376C132.831 11.376 137.292 12.832 140.354 15.744C143.415 18.656 144.946 23.4533 144.946 30.136C144.946 36.4453 143.415 41.0933 140.354 44.08C137.292 47.0667 132.831 48.56 126.97 48.56ZM126.97 40.888C129.994 40.888 132.196 40.0293 133.578 38.312C134.996 36.5573 135.706 33.832 135.706 30.136C135.706 26.104 134.996 23.2667 133.578 21.624C132.196 19.944 129.994 19.104 126.97 19.104C123.908 19.104 121.668 19.944 120.25 21.624C118.868 23.2667 118.178 26.104 118.178 30.136C118.178 33.832 118.868 36.5573 120.25 38.312C121.668 40.0293 123.908 40.888 126.97 40.888ZM150.544 48V11.936H159.56V41.056H176.584V48H150.544ZM197.371 48.56C194.011 48.56 191.08 48.0187 188.579 46.936C186.115 45.8533 184.192 44.248 182.811 42.12C181.467 39.992 180.795 37.3787 180.795 34.28V11.936H189.811V33.44C189.811 35.9413 190.464 37.808 191.771 39.04C193.077 40.272 194.944 40.888 197.371 40.888C199.797 40.888 201.664 40.272 202.971 39.04C204.277 37.808 204.931 35.9413 204.931 33.44V11.936H213.947V34.28C213.947 37.3787 213.256 39.992 211.875 42.12C210.531 44.248 208.608 45.8533 206.107 46.936C203.643 48.0187 200.731 48.56 197.371 48.56ZM228.7 48V18.88H218.116V11.936H248.3V18.88H237.716V48H228.7ZM253.348 48V11.936H262.364V48H253.348ZM285.915 48.56C280.054 48.56 275.592 47.0667 272.531 44.08C269.47 41.0933 267.939 36.4453 267.939 30.136C267.939 23.4533 269.47 18.656 272.531 15.744C275.592 12.832 280.054 11.376 285.915 11.376C291.776 11.376 296.238 12.832 299.299 15.744C302.36 18.656 303.891 23.4533 303.891 30.136C303.891 36.4453 302.36 41.0933 299.299 44.08C296.238 47.0667 291.776 48.56 285.915 48.56ZM285.915 40.888C288.939 40.888 291.142 40.0293 292.523 38.312C293.942 36.5573 294.651 33.832 294.651 30.136C294.651 26.104 293.942 23.2667 292.523 21.624C291.142 19.944 288.939 19.104 285.915 19.104C282.854 19.104 280.614 19.944 279.195 21.624C277.814 23.2667 277.123 26.104 277.123 30.136C277.123 33.832 277.814 36.5573 279.195 38.312C280.614 40.0293 282.854 40.888 285.915 40.888ZM309.489 48V11.936H317.217L332.561 33.496V11.936H341.633V48H333.849L318.505 26.496V48H309.489ZM348.333 48V11.936H357.349V48H348.333ZM362.924 48V43.408L379.836 19.104H363.764V11.936H391.652V16.976L374.908 41.056H391.988V48H362.924ZM397.419 48V11.936H406.435V48H397.419ZM413.129 48V11.936H420.857L436.201 33.496V11.936H445.273V48H437.489L422.145 26.496V48H413.129ZM469.949 48.56C463.715 48.56 458.973 46.992 455.725 43.856C452.477 40.6827 450.853 36.2213 450.853 30.472C450.853 24.4613 452.515 19.776 455.837 16.416C459.16 13.056 464.051 11.376 470.509 11.376C472.712 11.376 474.691 11.5067 476.445 11.768C478.237 12.0293 479.936 12.4213 481.541 12.944V20.672C479.936 20.0747 478.256 19.664 476.501 19.44C474.784 19.216 473.011 19.104 471.181 19.104C467.299 19.104 464.461 20.0373 462.669 21.904C460.915 23.7333 460.037 26.5893 460.037 30.472C460.037 34.0187 460.877 36.6507 462.557 38.368C464.237 40.048 466.72 40.888 470.005 40.888C472.171 40.888 474.187 40.5893 476.053 39.992V33.16H468.269V27.504H483.613V45.368C482.344 46.1893 480.571 46.936 478.293 47.608C476.053 48.2427 473.272 48.56 469.949 48.56Z" fill="#BA9EFC" fill-opacity="0.01"/>
<path d="M3.481 48H2.981V48.5H3.481V48ZM3.481 11.936V11.436H2.981V11.936H3.481ZM30.921 15.296L30.5494 15.6305L30.921 15.296ZM32.097 30.696L32.5117 30.9753L32.097 30.696ZM27.057 34.784L26.863 34.3232L26.0805 34.6526L26.7481 35.1772L27.057 34.784ZM28.289 36.184L27.8549 36.4321L27.8656 36.4508L27.8779 36.4686L28.289 36.184ZM29.353 38.256L28.8914 38.4483L28.8948 38.4561L29.353 38.256ZM33.609 48V48.5H34.373L34.0672 47.7999L33.609 48ZM24.201 48L23.7432 48.201L23.8745 48.5H24.201V48ZM20.169 38.816L19.7094 39.013L19.7112 39.017L20.169 38.816ZM18.881 37.136L18.5904 37.5429L18.6003 37.55L18.6106 37.5566L18.881 37.136ZM12.497 36.576V36.076H11.997V36.576H12.497ZM12.497 48V48.5H12.997V48H12.497ZM12.497 29.632H11.997V30.132H12.497V29.632ZM23.249 28.344L23.5803 28.7185L23.5812 28.7177L23.249 28.344ZM12.497 18.88V18.38H11.997V18.88H12.497ZM3.981 48V11.936H2.981V48H3.981ZM3.481 12.436H21.513V11.436H3.481V12.436ZM21.513 12.436C25.6874 12.436 28.6621 13.5335 30.5494 15.6305L31.2926 14.9615C29.1479 12.5785 25.8506 11.436 21.513 11.436V12.436ZM30.5494 15.6305C32.4634 17.7572 33.445 20.6326 33.445 24.312H34.445C34.445 20.4501 33.4106 17.3148 31.2926 14.9615L30.5494 15.6305ZM33.445 24.312C33.445 26.6496 32.8532 28.6781 31.6823 30.4167L32.5117 30.9753C33.8048 29.0552 34.445 26.8278 34.445 24.312H33.445ZM31.6823 30.4167C30.5072 32.1614 28.9057 33.4631 26.863 34.3232L27.251 35.2448C29.4643 34.3129 31.2228 32.8892 32.5117 30.9753L31.6823 30.4167ZM26.7481 35.1772C27.2253 35.5521 27.5914 35.9709 27.8549 36.4321L28.7231 35.9359C28.3893 35.3517 27.934 34.8372 27.3659 34.3908L26.7481 35.1772ZM27.8779 36.4686C28.1853 36.9126 28.5242 37.5669 28.8915 38.4483L29.8145 38.0637C29.4351 37.1531 29.0647 36.4261 28.7001 35.8994L27.8779 36.4686ZM28.8948 38.4561L33.1508 48.2001L34.0672 47.7999L29.8112 38.0559L28.8948 38.4561ZM33.609 47.5H24.201V48.5H33.609V47.5ZM24.6588 47.799L20.6268 38.615L19.7112 39.017L23.7432 48.201L24.6588 47.799ZM20.6286 38.619C20.2675 37.7765 19.784 37.1221 19.1514 36.7154L18.6106 37.5566C19.0233 37.8219 19.3985 38.2875 19.7094 39.013L20.6286 38.619ZM19.1716 36.7291C18.5308 36.2714 17.6657 36.076 16.641 36.076V37.076C17.5577 37.076 18.1858 37.2539 18.5904 37.5429L19.1716 36.7291ZM16.641 36.076H12.497V37.076H16.641V36.076ZM11.997 36.576V48H12.997V36.576H11.997ZM12.497 47.5H3.481V48.5H12.497V47.5ZM12.497 30.132H19.161V29.132H12.497V30.132ZM19.161 30.132C20.9941 30.132 22.4901 29.6829 23.5803 28.7185L22.9177 27.9695C22.0665 28.7225 20.8372 29.132 19.161 29.132V30.132ZM23.5812 28.7177C24.728 27.6983 25.261 26.1973 25.261 24.312H24.261C24.261 26.0107 23.786 27.1977 22.9168 27.9703L23.5812 28.7177ZM25.261 24.312C25.261 22.4294 24.8101 20.9247 23.8199 19.892C22.826 18.8553 21.3716 18.38 19.553 18.38V19.38C21.2064 19.38 22.356 19.81 23.0981 20.584C23.8439 21.3619 24.261 22.5733 24.261 24.312H25.261ZM19.553 18.38H12.497V19.38H19.553V18.38ZM11.997 18.88V29.632H12.997V18.88H11.997ZM39.5357 48H39.0357V48.5H39.5357V48ZM39.5357 11.936V11.436H39.0357V11.936H39.5357ZM66.1357 11.936H66.6357V11.436H66.1357V11.936ZM66.1357 18.88V19.38H66.6357V18.88H66.1357ZM48.5517 18.88V18.38H48.0517V18.88H48.5517ZM48.5517 26.44H48.0517V26.94H48.5517V26.44ZM64.0637 26.44H64.5637V25.94H64.0637V26.44ZM64.0637 33.496V33.996H64.5637V33.496H64.0637ZM48.5517 33.496V32.996H48.0517V33.496H48.5517ZM48.5517 41.056H48.0517V41.556H48.5517V41.056ZM66.1357 41.056H66.6357V40.556H66.1357V41.056ZM66.1357 48V48.5H66.6357V48H66.1357ZM40.0357 48V11.936H39.0357V48H40.0357ZM39.5357 12.436H66.1357V11.436H39.5357V12.436ZM65.6357 11.936V18.88H66.6357V11.936H65.6357ZM66.1357 18.38H48.5517V19.38H66.1357V18.38ZM48.0517 18.88V26.44H49.0517V18.88H48.0517ZM48.5517 26.94H64.0637V25.94H48.5517V26.94ZM63.5637 26.44V33.496H64.5637V26.44H63.5637ZM64.0637 32.996H48.5517V33.996H64.0637V32.996ZM48.0517 33.496V41.056H49.0517V33.496H48.0517ZM48.5517 41.556H66.1357V40.556H48.5517V41.556ZM65.6357 41.056V48H66.6357V41.056H65.6357ZM66.1357 47.5H39.5357V48.5H66.1357V47.5ZM83.2698 48L82.8027 48.1784L82.9256 48.5H83.2698V48ZM69.4938 11.936V11.436H68.7676L69.0267 12.1144L69.4938 11.936ZM78.9018 11.936L79.3728 11.7681L79.2544 11.436H78.9018V11.936ZM88.0858 37.696L87.6149 37.8639L88.0844 39.1809L88.5564 37.8648L88.0858 37.696ZM97.3258 11.936V11.436H96.974L96.8552 11.7672L97.3258 11.936ZM106.79 11.936L107.257 12.1144L107.516 11.436H106.79V11.936ZM93.0138 48V48.5H93.3581L93.4809 48.1784L93.0138 48ZM83.7369 47.8216L69.9609 11.7576L69.0267 12.1144L82.8027 48.1784L83.7369 47.8216ZM69.4938 12.436H78.9018V11.436H69.4938V12.436ZM78.4308 12.1039L87.6149 37.8639L88.5568 37.5281L79.3728 11.7681L78.4308 12.1039ZM88.5564 37.8648L97.7964 12.1048L96.8552 11.7672L87.6152 37.5272L88.5564 37.8648ZM97.3258 12.436H106.79V11.436H97.3258V12.436ZM106.323 11.7576L92.5467 47.8216L93.4809 48.1784L107.257 12.1144L106.323 11.7576ZM93.0138 47.5H83.2698V48.5H93.0138V47.5ZM113.586 44.08L113.237 44.4379L113.586 44.08ZM113.586 15.744L113.93 16.1063L113.586 15.744ZM140.354 44.08L140.703 44.4379L140.354 44.08ZM133.578 38.312L133.189 37.9976L133.188 37.9986L133.578 38.312ZM133.578 21.624L133.191 21.9416L133.199 21.9508L133.578 21.624ZM120.25 21.624L119.868 21.3014L119.867 21.3022L120.25 21.624ZM120.25 38.312L119.857 38.6214L119.864 38.6304L120.25 38.312ZM126.97 48.06C121.19 48.06 116.873 46.5882 113.935 43.7221L113.237 44.4379C116.422 47.5451 121.027 49.06 126.97 49.06V48.06ZM113.935 43.7221C111.008 40.8664 109.494 36.3745 109.494 30.136H108.494C108.494 36.5161 110.041 41.3203 113.237 44.4379L113.935 43.7221ZM109.494 30.136C109.494 23.5127 111.013 18.8812 113.93 16.1063L113.241 15.3817C110.036 18.4308 108.494 23.394 108.494 30.136H109.494ZM113.93 16.1063C116.868 13.3121 121.187 11.876 126.97 11.876V10.876C121.03 10.876 116.426 12.3519 113.241 15.3817L113.93 16.1063ZM126.97 11.876C132.753 11.876 137.072 13.3121 140.009 16.1063L140.698 15.3817C137.513 12.3519 132.909 10.876 126.97 10.876V11.876ZM140.009 16.1063C142.926 18.8812 144.446 23.5127 144.446 30.136H145.446C145.446 23.394 143.904 18.4308 140.698 15.3817L140.009 16.1063ZM144.446 30.136C144.446 36.3745 142.932 40.8664 140.005 43.7221L140.703 44.4379C143.899 41.3203 145.446 36.5161 145.446 30.136H144.446ZM140.005 43.7221C137.067 46.5882 132.75 48.06 126.97 48.06V49.06C132.912 49.06 137.518 47.5451 140.703 44.4379L140.005 43.7221ZM126.97 41.388C130.086 41.388 132.459 40.5005 133.967 38.6254L133.188 37.9986C131.934 39.5582 129.902 40.388 126.97 40.388V41.388ZM133.967 38.6264C135.491 36.7415 136.206 33.8789 136.206 30.136H135.206C135.206 33.7851 134.502 36.3732 133.189 37.9976L133.967 38.6264ZM136.206 30.136C136.206 26.0747 135.497 23.0815 133.956 21.2972L133.199 21.9508C134.496 23.4519 135.206 26.1333 135.206 30.136H136.206ZM133.964 21.3064C132.455 19.4707 130.082 18.604 126.97 18.604V19.604C129.906 19.604 131.938 20.4173 133.192 21.9416L133.964 21.3064ZM126.97 18.604C123.822 18.604 121.415 19.4698 119.868 21.3014L120.632 21.9466C121.922 20.4182 123.995 19.604 126.97 19.604V18.604ZM119.867 21.3022C118.367 23.0859 117.678 26.0767 117.678 30.136H118.678C118.678 26.1313 119.37 23.4474 120.632 21.9458L119.867 21.3022ZM117.678 30.136C117.678 33.8767 118.374 36.7371 119.857 38.6213L120.643 38.0027C119.363 36.3776 118.678 33.7873 118.678 30.136H117.678ZM119.864 38.6304C121.41 40.5015 123.818 41.388 126.97 41.388V40.388C123.999 40.388 121.927 39.5572 120.635 37.9936L119.864 38.6304ZM150.544 48H150.044V48.5H150.544V48ZM150.544 11.936V11.436H150.044V11.936H150.544ZM159.559 11.936H160.059V11.436H159.559V11.936ZM159.559 41.056H159.059V41.556H159.559V41.056ZM176.583 41.056H177.083V40.556H176.583V41.056ZM176.583 48V48.5H177.083V48H176.583ZM151.044 48V11.936H150.044V48H151.044ZM150.544 12.436H159.559V11.436H150.544V12.436ZM159.059 11.936V41.056H160.059V11.936H159.059ZM159.559 41.556H176.583V40.556H159.559V41.556ZM176.083 41.056V48H177.083V41.056H176.083ZM176.583 47.5H150.544V48.5H176.583V47.5ZM188.579 46.936L188.378 47.3938L188.38 47.3949L188.579 46.936ZM182.811 42.12L182.388 42.387L182.391 42.3922L182.811 42.12ZM180.795 11.936V11.436H180.295V11.936H180.795ZM189.811 11.936H190.311V11.436H189.811V11.936ZM191.771 39.04L192.114 38.6762L191.771 39.04ZM202.971 39.04L203.314 39.4038L202.971 39.04ZM204.931 11.936V11.436H204.431V11.936H204.931ZM213.947 11.936H214.447V11.436H213.947V11.936ZM211.875 42.12L211.455 41.8477L211.452 41.853L211.875 42.12ZM206.107 46.936L205.908 46.4771L205.906 46.4782L206.107 46.936ZM197.371 48.06C194.064 48.06 191.203 47.5271 188.777 46.4771L188.38 47.3949C190.957 48.5102 193.958 49.06 197.371 49.06V48.06ZM188.78 46.4782C186.399 45.4323 184.555 43.8889 183.23 41.8478L182.391 42.3922C183.829 44.6071 185.83 46.2744 188.378 47.3938L188.78 46.4782ZM183.233 41.853C181.95 39.8216 181.295 37.306 181.295 34.28H180.295C180.295 37.4513 180.983 40.1624 182.388 42.387L183.233 41.853ZM181.295 34.28V11.936H180.295V34.28H181.295ZM180.795 12.436H189.811V11.436H180.795V12.436ZM189.311 11.936V33.44H190.311V11.936H189.311ZM189.311 33.44C189.311 36.0235 189.987 38.045 191.428 39.4038L192.114 38.6762C190.942 37.571 190.311 35.8591 190.311 33.44H189.311ZM191.428 39.4038C192.856 40.7502 194.862 41.388 197.371 41.388V40.388C195.026 40.388 193.299 39.7938 192.114 38.6762L191.428 39.4038ZM197.371 41.388C199.879 41.388 201.886 40.7502 203.314 39.4038L202.628 38.6762C201.442 39.7938 199.716 40.388 197.371 40.388V41.388ZM203.314 39.4038C204.755 38.045 205.431 36.0235 205.431 33.44H204.431C204.431 35.8591 203.8 37.571 202.628 38.6762L203.314 39.4038ZM205.431 33.44V11.936H204.431V33.44H205.431ZM204.931 12.436H213.947V11.436H204.931V12.436ZM213.447 11.936V34.28H214.447V11.936H213.447ZM213.447 34.28C213.447 37.3036 212.773 39.8172 211.455 41.8478L212.294 42.3922C213.739 40.1668 214.447 37.4538 214.447 34.28H213.447ZM211.452 41.853C210.166 43.8889 208.325 45.431 205.908 46.4771L206.305 47.3949C208.891 46.2757 210.895 44.6071 212.298 42.387L211.452 41.853ZM205.906 46.4782C203.519 47.527 200.678 48.06 197.371 48.06V49.06C200.783 49.06 203.767 48.5103 206.308 47.3938L205.906 46.4782ZM228.7 48H228.2V48.5H228.7V48ZM228.7 18.88H229.2V18.38H228.7V18.88ZM218.116 18.88H217.616V19.38H218.116V18.88ZM218.116 11.936V11.436H217.616V11.936H218.116ZM248.3 11.936H248.8V11.436H248.3V11.936ZM248.3 18.88V19.38H248.8V18.88H248.3ZM237.716 18.88V18.38H237.216V18.88H237.716ZM237.716 48V48.5H238.216V48H237.716ZM229.2 48V18.88H228.2V48H229.2ZM228.7 18.38H218.116V19.38H228.7V18.38ZM218.616 18.88V11.936H217.616V18.88H218.616ZM218.116 12.436H248.3V11.436H218.116V12.436ZM247.8 11.936V18.88H248.8V11.936H247.8ZM248.3 18.38H237.716V19.38H248.3V18.38ZM237.216 18.88V48H238.216V18.88H237.216ZM237.716 47.5H228.7V48.5H237.716V47.5ZM253.348 48H252.848V48.5H253.348V48ZM253.348 11.936V11.436H252.848V11.936H253.348ZM262.364 11.936H262.864V11.436H262.364V11.936ZM262.364 48V48.5H262.864V48H262.364ZM253.848 48V11.936H252.848V48H253.848ZM253.348 12.436H262.364V11.436H253.348V12.436ZM261.864 11.936V48H262.864V11.936H261.864ZM262.364 47.5H253.348V48.5H262.364V47.5ZM272.531 44.08L272.182 44.4379L272.531 44.08ZM272.531 15.744L272.876 16.1063L272.531 15.744ZM299.299 44.08L299.648 44.4379L299.299 44.08ZM292.523 38.312L292.134 37.9976L292.134 37.9986L292.523 38.312ZM292.523 21.624L292.137 21.9416L292.145 21.9508L292.523 21.624ZM279.195 21.624L278.813 21.3014L278.812 21.3022L279.195 21.624ZM279.195 38.312L278.802 38.6214L278.81 38.6304L279.195 38.312ZM285.915 48.06C280.135 48.06 275.818 46.5882 272.88 43.7221L272.182 44.4379C275.367 47.5451 279.973 49.06 285.915 49.06V48.06ZM272.88 43.7221C269.953 40.8664 268.439 36.3745 268.439 30.136H267.439C267.439 36.5161 268.986 41.3203 272.182 44.4379L272.88 43.7221ZM268.439 30.136C268.439 23.5127 269.958 18.8812 272.876 16.1063L272.187 15.3817C268.981 18.4308 267.439 23.394 267.439 30.136H268.439ZM272.876 16.1063C275.813 13.3121 280.132 11.876 285.915 11.876V10.876C279.976 10.876 275.372 12.3519 272.187 15.3817L272.876 16.1063ZM285.915 11.876C291.698 11.876 296.017 13.3121 298.955 16.1063L299.644 15.3817C296.459 12.3519 291.855 10.876 285.915 10.876V11.876ZM298.955 16.1063C301.872 18.8812 303.391 23.5127 303.391 30.136H304.391C304.391 23.394 302.849 18.4308 299.644 15.3817L298.955 16.1063ZM303.391 30.136C303.391 36.3745 301.877 40.8664 298.95 43.7221L299.648 44.4379C302.844 41.3203 304.391 36.5161 304.391 30.136H303.391ZM298.95 43.7221C296.012 46.5882 291.695 48.06 285.915 48.06V49.06C291.858 49.06 296.463 47.5451 299.648 44.4379L298.95 43.7221ZM285.915 41.388C289.031 41.388 291.405 40.5005 292.913 38.6254L292.134 37.9986C290.879 39.5582 288.847 40.388 285.915 40.388V41.388ZM292.912 38.6264C294.436 36.7415 295.151 33.8789 295.151 30.136H294.151C294.151 33.7851 293.448 36.3732 292.134 37.9976L292.912 38.6264ZM295.151 30.136C295.151 26.0747 294.443 23.0815 292.902 21.2972L292.145 21.9508C293.441 23.4519 294.151 26.1333 294.151 30.136H295.151ZM292.909 21.3064C291.4 19.4707 289.027 18.604 285.915 18.604V19.604C288.851 19.604 290.884 20.4173 292.137 21.9416L292.909 21.3064ZM285.915 18.604C282.767 18.604 280.36 19.4698 278.813 21.3014L279.577 21.9466C280.868 20.4182 282.941 19.604 285.915 19.604V18.604ZM278.812 21.3022C277.312 23.0859 276.623 26.0767 276.623 30.136H277.623C277.623 26.1313 278.315 23.4474 279.578 21.9458L278.812 21.3022ZM276.623 30.136C276.623 33.8767 277.319 36.7371 278.802 38.6213L279.588 38.0027C278.309 36.3776 277.623 33.7873 277.623 30.136H276.623ZM278.81 38.6304C280.355 40.5015 282.764 41.388 285.915 41.388V40.388C282.944 40.388 280.872 39.5572 279.581 37.9936L278.81 38.6304ZM309.489 48H308.989V48.5H309.489V48ZM309.489 11.936V11.436H308.989V11.936H309.489ZM317.217 11.936L317.624 11.6461L317.475 11.436H317.217V11.936ZM332.561 33.496L332.153 33.7859L333.061 35.0609V33.496H332.561ZM332.561 11.936V11.436H332.061V11.936H332.561ZM341.633 11.936H342.133V11.436H341.633V11.936ZM341.633 48V48.5H342.133V48H341.633ZM333.849 48L333.442 48.2904L333.591 48.5H333.849V48ZM318.505 26.496L318.912 26.2056L318.005 24.9344V26.496H318.505ZM318.505 48V48.5H319.005V48H318.505ZM309.989 48V11.936H308.989V48H309.989ZM309.489 12.436H317.217V11.436H309.489V12.436ZM316.809 12.2259L332.153 33.7859L332.968 33.2061L317.624 11.6461L316.809 12.2259ZM333.061 33.496V11.936H332.061V33.496H333.061ZM332.561 12.436H341.633V11.436H332.561V12.436ZM341.133 11.936V48H342.133V11.936H341.133ZM341.633 47.5H333.849V48.5H341.633V47.5ZM334.256 47.7096L318.912 26.2056L318.098 26.7864L333.442 48.2904L334.256 47.7096ZM318.005 26.496V48H319.005V26.496H318.005ZM318.505 47.5H309.489V48.5H318.505V47.5ZM348.333 48H347.833V48.5H348.333V48ZM348.333 11.936V11.436H347.833V11.936H348.333ZM357.349 11.936H357.849V11.436H357.349V11.936ZM357.349 48V48.5H357.849V48H357.349ZM348.833 48V11.936H347.833V48H348.833ZM348.333 12.436H357.349V11.436H348.333V12.436ZM356.849 11.936V48H357.849V11.936H356.849ZM357.349 47.5H348.333V48.5H357.349V47.5ZM362.923 48H362.423V48.5H362.923V48ZM362.923 43.408L362.513 43.1224L362.423 43.2512V43.408H362.923ZM379.836 19.104L380.246 19.3896L380.793 18.604H379.836V19.104ZM363.763 19.104H363.263V19.604H363.763V19.104ZM363.763 11.936V11.436H363.263V11.936H363.763ZM391.651 11.936H392.151V11.436H391.651V11.936ZM391.651 16.976L392.062 17.2614L392.151 17.1328V16.976H391.651ZM374.908 41.056L374.497 40.7705L373.951 41.556H374.908V41.056ZM391.987 41.056H392.487V40.556H391.987V41.056ZM391.987 48V48.5H392.487V48H391.987ZM363.423 48V43.408H362.423V48H363.423ZM363.334 43.6936L380.246 19.3896L379.425 18.8184L362.513 43.1224L363.334 43.6936ZM379.836 18.604H363.763V19.604H379.836V18.604ZM364.263 19.104V11.936H363.263V19.104H364.263ZM363.763 12.436H391.651V11.436H363.763V12.436ZM391.151 11.936V16.976H392.151V11.936H391.151ZM391.241 16.6905L374.497 40.7705L375.318 41.3414L392.062 17.2614L391.241 16.6905ZM374.908 41.556H391.987V40.556H374.908V41.556ZM391.487 41.056V48H392.487V41.056H391.487ZM391.987 47.5H362.923V48.5H391.987V47.5ZM397.418 48H396.918V48.5H397.418V48ZM397.418 11.936V11.436H396.918V11.936H397.418ZM406.435 11.936H406.935V11.436H406.435V11.936ZM406.435 48V48.5H406.935V48H406.435ZM397.918 48V11.936H396.918V48H397.918ZM397.418 12.436H406.435V11.436H397.418V12.436ZM405.935 11.936V48H406.935V11.936H405.935ZM406.435 47.5H397.418V48.5H406.435V47.5ZM413.129 48H412.629V48.5H413.129V48ZM413.129 11.936V11.436H412.629V11.936H413.129ZM420.857 11.936L421.265 11.6461L421.115 11.436H420.857V11.936ZM436.201 33.496L435.794 33.7859L436.701 35.0609V33.496H436.201ZM436.201 11.936V11.436H435.701V11.936H436.201ZM445.273 11.936H445.773V11.436H445.273V11.936ZM445.273 48V48.5H445.773V48H445.273ZM437.489 48L437.082 48.2904L437.232 48.5H437.489V48ZM422.145 26.496L422.552 26.2056L421.645 24.9344V26.496H422.145ZM422.145 48V48.5H422.645V48H422.145ZM413.629 48V11.936H412.629V48H413.629ZM413.129 12.436H420.857V11.436H413.129V12.436ZM420.45 12.2259L435.794 33.7859L436.609 33.2061L421.265 11.6461L420.45 12.2259ZM436.701 33.496V11.936H435.701V33.496H436.701ZM436.201 12.436H445.273V11.436H436.201V12.436ZM444.773 11.936V48H445.773V11.936H444.773ZM445.273 47.5H437.489V48.5H445.273V47.5ZM437.896 47.7096L422.552 26.2056L421.738 26.7864L437.082 48.2904L437.896 47.7096ZM421.645 26.496V48H422.645V26.496H421.645ZM422.145 47.5H413.129V48.5H422.145V47.5ZM455.725 43.856L455.376 44.2136L455.378 44.2157L455.725 43.856ZM455.837 16.416L456.193 16.7676L455.837 16.416ZM476.445 11.768L476.372 12.2625L476.373 12.2628L476.445 11.768ZM481.541 12.944H482.041V12.581L481.696 12.4686L481.541 12.944ZM481.541 20.672L481.367 21.1406L482.041 21.3915V20.672H481.541ZM476.501 19.44L476.437 19.9358L476.438 19.936L476.501 19.44ZM462.669 21.904L462.309 21.5577L462.308 21.5579L462.669 21.904ZM462.557 38.368L462.2 38.7177L462.204 38.7216L462.557 38.368ZM476.053 39.992L476.206 40.4682L476.553 40.357V39.992H476.053ZM476.053 33.16H476.553V32.66H476.053V33.16ZM468.269 33.16H467.769V33.66H468.269V33.16ZM468.269 27.504V27.004H467.769V27.504H468.269ZM483.613 27.504H484.113V27.004H483.613V27.504ZM483.613 45.368L483.885 45.7878L484.113 45.64V45.368H483.613ZM478.293 47.608L478.43 48.0891L478.435 48.0876L478.293 47.608ZM469.949 48.06C463.794 48.06 459.197 46.5127 456.072 43.4963L455.378 44.2157C458.75 47.4713 463.635 49.06 469.949 49.06V48.06ZM456.075 43.4984C452.947 40.4426 451.353 36.1245 451.353 30.472H450.353C450.353 36.3181 452.007 40.9227 455.376 44.2136L456.075 43.4984ZM451.353 30.472C451.353 24.5554 452.986 20.0103 456.193 16.7676L455.482 16.0644C452.043 19.5417 450.353 24.3672 450.353 30.472H451.353ZM456.193 16.7676C459.391 13.5331 464.134 11.876 470.509 11.876V10.876C463.967 10.876 458.929 12.5788 455.482 16.0644L456.193 16.7676ZM470.509 11.876C472.693 11.876 474.646 12.0056 476.372 12.2625L476.519 11.2735C474.735 11.0077 472.731 10.876 470.509 10.876V11.876ZM476.373 12.2628C478.139 12.5203 479.81 12.9061 481.386 13.4194L481.696 12.4686C480.062 11.9365 478.335 11.5384 476.517 11.2732L476.373 12.2628ZM481.041 12.944V20.672H482.041V12.944H481.041ZM481.716 20.2034C480.073 19.5923 478.356 19.1727 476.565 18.944L476.438 19.936C478.156 20.1553 479.798 20.557 481.367 21.1406L481.716 20.2034ZM476.566 18.9442C474.826 18.7172 473.031 18.604 471.181 18.604V19.604C472.99 19.604 474.742 19.7147 476.437 19.9358L476.566 18.9442ZM471.181 18.604C467.23 18.604 464.233 19.5529 462.309 21.5577L463.03 22.2503C464.689 20.5218 467.367 19.604 471.181 19.604V18.604ZM462.308 21.5579C460.427 23.5194 459.537 26.5271 459.537 30.472H460.537C460.537 26.6515 461.402 23.9473 463.03 22.2501L462.308 21.5579ZM459.537 30.472C459.537 34.0877 460.393 36.8705 462.2 38.7176L462.915 38.0184C461.362 36.4308 460.537 33.9497 460.537 30.472H459.537ZM462.204 38.7216C464.009 40.5265 466.639 41.388 470.005 41.388V40.388C466.801 40.388 464.466 39.5695 462.911 38.0144L462.204 38.7216ZM470.005 41.388C472.217 41.388 474.285 41.0829 476.206 40.4682L475.901 39.5158C474.088 40.0958 472.124 40.388 470.005 40.388V41.388ZM476.553 39.992V33.16H475.553V39.992H476.553ZM476.053 32.66H468.269V33.66H476.053V32.66ZM468.769 33.16V27.504H467.769V33.16H468.769ZM468.269 28.004H483.613V27.004H468.269V28.004ZM483.113 27.504V45.368H484.113V27.504H483.113ZM483.342 44.9482C482.129 45.733 480.406 46.4632 478.152 47.1284L478.435 48.0876C480.735 47.4088 482.559 46.6456 483.885 45.7878L483.342 44.9482ZM478.157 47.1269C475.976 47.7449 473.244 48.06 469.949 48.06V49.06C473.3 49.06 476.131 48.7404 478.43 48.0891L478.157 47.1269Z" fill="#22A6FA"/>
</svg>
